<svg xmlns="http://www.w3.org/2000/svg" enable-background="new 0 0 48 48" viewBox="0 0 48 48" id="brain">
  <path fill="#f2d6ad" d="M32,44c0-3.81-1-9-3-14h-7c0,5.714,6,10.19,6,14H32z"></path>
  <path fill="#fcf6f2" d="M28,41v-2h2v-2h1.147c-0.498-2.268-1.208-4.653-2.147-7h-7c0,4.282,3.368,7.868,5.057,11H28z"></path>
  <ellipse cx="32" cy="32" fill="#bc9c73" rx="5.657" ry="8.485" transform="rotate(-45.001 32 32)"></ellipse>
  <path fill="#ccb9ae" d="M30.615,38H32v-2h2v-2h2v-2h2v-1.385c-0.513-0.908-1.182-1.797-2-2.615c-3.314-3.314-7.791-4.209-10-2
	c-2.209,2.209-1.314,6.686,2,10C28.818,36.818,29.707,37.487,30.615,38z"></path>
  <path fill="#fc5696" d="M46,24c0-1.781-0.939-3.335-2.341-4.22C43.871,19.225,44,18.629,44,18c0-2.066-1.253-3.837-3.04-4.6
	C40.971,13.266,41,13.137,41,13c0-2.761-2.239-5-5-5c-0.137,0-0.266,0.03-0.4,0.04C34.838,6.253,33.066,5,31,5
	c-0.852,0-1.643,0.233-2.345,0.609C27.742,4.625,26.448,4,25,4c-1.131,0-2.162,0.39-3,1.023C21.162,4.39,20.131,4,19,4
	c-1.448,0-2.742,0.625-3.655,1.609C14.643,5.233,13.853,5,13,5c-2.074,0-3.852,1.263-4.609,3.061C5.92,8.365,4,10.447,4,13
	c0,0.323,0.036,0.638,0.095,0.944C2.831,14.852,2,16.325,2,18c0,1.261,0.483,2.4,1.253,3.28C3.09,21.825,3,22.402,3,23
	c0,3.314,2.686,6,6,6c1.098,0,2.124-0.3,3.009-0.815C12.108,31.965,15.197,35,19,35c2.853,0,5.303-1.709,6.393-4.158
	C26.494,32.16,28.149,33,30,33c1.394,0,2.673-0.48,3.692-1.277C34.575,32.508,35.725,33,37,33c0.314,0,0.618-0.037,0.916-0.092
	C38.768,33.581,39.83,34,41,34c2.761,0,5-2.239,5-5c0-0.915-0.264-1.762-0.694-2.5C45.736,25.762,46,24.915,46,24z"></path>
  <path fill="#fc92c3" d="M3,23c0,3.314,2.686,6,6,6c1.098,0,2.124-0.3,3.009-0.815c0.017,0.63,0.123,1.237,0.295,1.815H14v-2h2v-2h2v-2
	h2v-2h2v-2h2v-2h2v-2h2v-2h2v-2h2v-2h2V8h1.579C34.807,6.235,33.05,5,31,5c-0.852,0-1.643,0.233-2.345,0.609
	C27.742,4.625,26.448,4,25,4c-1.131,0-2.162,0.39-3,1.023C21.162,4.39,20.131,4,19,4c-1.448,0-2.742,0.625-3.655,1.609
	C14.643,5.233,13.853,5,13,5c-2.074,0-3.852,1.263-4.609,3.061C5.92,8.365,4,10.447,4,13c0,0.323,0.036,0.638,0.095,0.944
	C2.831,14.852,2,16.325,2,18c0,1.261,0.483,2.4,1.253,3.28C3.09,21.825,3,22.402,3,23z"></path>
  <path d="M25,17h2v3h-1v2h-2v1h-4v1h-1v3h-2v-3h1v-2h2v-1h4v-1h1V17z M38,14h-3v1h-2v1h-1v1h-1v2h-1v3h-1v6h2v-6h1v-3h1v-1h1v-1h1v-1
	h3V14z M18,15h1v-2h1V9h-2v4h-1v1h-1v1h-2v1h-2v1H7v2h6v-1h1v-1h2v-1h2V15z M47,21v11h-1v1h-1v1h-1v1h-4v3h-1v1h-1v1h-5v4h-2v-5h-1
	v-1h-2v-1h-1v-1h-1v-2h-2v1h1v2h1v1h1v2h1v1h1v3h-2v-2h-1v-2h-1v-1h-1v-2h-1v-2h-1v1h-6v-1h-2v-1h-1v-1h-1v-2h-1v-1H5v-1H4v-1H3v-1
	H2v-6H1v-6h1v-1h1v-4h1V9h1V8h1V7h2V6h1V5h1V4h6V3h12v1h6v1h1v1h1v1h3v1h1v1h1v1h1v3h1v1h1v1h1v5h1v1H47z M38,34h-4v-1h-2v1h-4v-1
	h-1v1h1v1h1v1h1v1h2v1h5v-1h1V34z M45,22h-2v1h-1v1h-4v-2h3v-1h1v-1h1v-4h-1v-1h-1v-1h-1v-3h-1v-1h-1V9h-4v1h-1v1h-1v3h-2v-4h1V9h1
	V8h1V6h-3v1h-2V6h-1V5h-3v1h1v4h-2V7h-1V6h-1V5h-4v1h-1v1h-1v3h-2V6h-2v1h-1v1H9v1H7v1H6v1H5v1h3v2H5v1H4v1H3v4h1v1h1v1h3v2H4v2h1v1
	h1v1h5v-3h1v-2h1v-1h2v2h-1v1h-1v6h1v1h1v1h1v1h6v-1h1v-1h1v-3h-1v-3h2v3h1v1h1v1h1v1h4v-1h1v-1h1v-1h1v-3h2v3h-1v2h-1v1h2v-1h1v1h1
	v1h4v-1h1v-1h1v-3h-1v-2h1V22z"></path>
</svg>
